<?xml version="1.0" encoding="utf-8"?>
<!-- Generator: Adobe Illustrator 16.0.3, SVG Export Plug-In . SVG Version: 6.00 Build 0)  -->
<!DOCTYPE svg PUBLIC "-//W3C//DTD SVG 1.1//EN" "http://www.w3.org/Graphics/SVG/1.1/DTD/svg11.dtd">
<svg version="1.1" id="Ebene_1" xmlns="http://www.w3.org/2000/svg" xmlns:xlink="http://www.w3.org/1999/xlink" x="0px" y="0px"
	 width="85.039px" height="85.039px" viewBox="0 0 85.039 85.039" enable-background="new 0 0 85.039 85.039" xml:space="preserve">
<path fill="#1D71B8" d="M78.421,35.078l-8.796-0.868c-0.531-1.737-1.228-3.401-2.066-4.978l5.609-6.837
	c2.031-2.031,2.254-5.103,0.496-6.86l-4.16-4.16c-1.758-1.758-4.828-1.535-6.859,0.496l-6.837,5.609
	c-1.577-0.839-3.242-1.535-4.979-2.067l-0.867-8.795c0-2.873-2.016-5.201-4.501-5.201h-5.882c-2.486,0-4.501,2.329-4.501,5.201
	l-0.868,8.795c-1.736,0.532-3.4,1.228-4.977,2.066l-6.836-5.608c-2.031-2.031-5.104-2.253-6.861-0.496l-4.159,4.159
	c-1.758,1.758-1.536,4.83,0.495,6.861l5.608,6.835c-0.839,1.578-1.535,3.242-2.066,4.979l-8.795,0.868
	c-2.872,0-5.201,2.015-5.201,4.5v5.882c0,2.485,2.329,4.5,5.201,4.5l8.795,0.868c0.532,1.737,1.228,3.401,2.067,4.979l-5.609,6.836
	c-2.03,2.031-2.252,5.102-0.494,6.859l4.159,4.16c1.757,1.757,4.829,1.536,6.859-0.495l6.837-5.608
	c1.577,0.838,3.24,1.534,4.978,2.066l0.867,8.795c0,2.873,2.016,5.2,4.501,5.2h5.882c2.486,0,4.501-2.328,4.501-5.2l0.867-8.795
	c1.737-0.532,3.401-1.228,4.979-2.066l6.837,5.609c2.031,2.031,5.103,2.252,6.86,0.495l4.158-4.159
	c1.758-1.758,1.537-4.829-0.494-6.86l-5.609-6.837c0.839-1.577,1.534-3.241,2.066-4.978l8.796-0.868c2.872,0,5.201-2.015,5.201-4.5
	v-5.882C83.622,37.093,81.293,35.078,78.421,35.078z M42.52,53.857c-6.263,0-11.338-5.076-11.338-11.338s5.076-11.338,11.338-11.338
	c6.262,0,11.337,5.076,11.337,11.338S48.781,53.857,42.52,53.857z"/>
</svg>
